# xmcd CD database file
#
# Track frame offsets:
#	150
#	20617
#	42489
#	65971
#	82328
#	103742
#	116704
#	131199
#	152253
#	174148
#	210662
#	234444
#	251639
#
# Disc length: 3717 seconds
#
# Revision: 0
# Processed by: cddbd v1.5.2PL0 Copyright (c) Steve Scherf et al.
# Submitted via: CDex 1.51
#
DISCID=b80e830d
DTITLE=Gary P. Nunn - Home With The Armadillo
DYEAR=1993
DGENRE=Country
TTITLE0=The Nights Never Get Lonely
TTITLE1=The Last Thing I Needed
TTITLE2=Tennessee Road
TTITLE3=Born Yesterday
TTITLE4=Give Me Some Money
TTITLE5=Austin Pickers
TTITLE6=Kara Lee
TTITLE7=Public Domain
TTITLE8=What I Like About Texas
TTITLE9=Come And Get It
TTITLE10=When The Night Comes
TTITLE11=Since You've Been Gone
TTITLE12=London Homesick Blues
EXTD=YEAR: 1993
EXTT0=
EXTT1=
EXTT2=
EXTT3=
EXTT4=
EXTT5=
EXTT6=
EXTT7=
EXTT8=
EXTT9=
EXTT10=
EXTT11=
EXTT12=
PLAYORDER=
